<?xml version="1.0" encoding="UTF-8"?>
<svg width="432px" height="404px" viewBox="0 0 432 404" version="1.1" xmlns="http://www.w3.org/2000/svg" xmlns:xlink="http://www.w3.org/1999/xlink">
    <title>编组</title>
    <defs>
        <linearGradient x1="125.894338%" y1="65.9149545%" x2="-18.8862997%" y2="20.8038849%" id="linearGradient-1">
            <stop stop-color="#00FDDE" offset="0%"></stop>
            <stop stop-color="#0F3BCB" offset="100%"></stop>
        </linearGradient>
    </defs>
    <g id="页面-1" stroke="none" stroke-width="1" fill="none" fill-rule="evenodd">
        <g id="编组" transform="translate(0.000000, 0.192016)" fill-rule="nonzero">
            <path d="M213.9,81.5079836 C234.2,81.5079836 252.1,85.7079836 267.7,93.4079836 C267.991955,93.5502179 268.287272,93.6846065 268.585573,93.8110236 C268.820718,94.0126252 269.91653,94.5607831 271.10779,95.1467792 L271.485614,95.3324125 C272.560046,95.8598966 273.646512,96.3917045 274.2,96.7079836 C317.6,121.307984 336.5,173.407984 336.5,233.607984 C336.5,293.007984 312.527681,355.021179 270.527681,385.421179 C266.456451,389.441606 264.825844,390.676517 264.431281,391.020789 C249.719044,398.858164 232.785531,403.413528 213.8,403.507984 C195.3,403.807984 177.1,399.107984 161.1,390.007984 C160.528378,389.66501 159.934972,389.376496 159.326009,389.141748 C159.404046,388.998043 159.088482,388.79417 156.60899,386.882841 C155.622698,386.122552 155.12244,385.727888 154.885438,385.536409 L154.858,385.513984 C154.87298,385.53634 154.859574,385.537771 154.8,385.507984 C113,355.107984 88.7,293.007984 88.7,233.507984 C88.7,173.307984 107.6,121.307984 151,96.6079836 C151.9,96.1079836 153.930112,94.8508637 156.097369,93.6068029 C156.140635,93.5819669 156.184272,93.5538993 156.228239,93.5227392 C157.067104,93.2829028 157.893065,92.9787377 158.7,92.6079836 C174.2,85.4079836 192.6,81.5079836 213.9,81.5079836 Z M120,90.5079836 C127.874704,90.4214484 135.749408,91.2335143 143.429711,92.8793808 L143.402981,92.8952364 C96.7029807,116.395236 74.6,171.307984 74.6,233.607984 C74.6,297.307984 99.5,362.307984 147.3,389.807984 C147.430309,389.873138 147.561151,390.020479 147.692179,390.182628 C138.658432,393.021537 129.268368,394.519494 119.8,394.607984 C43,395.807984 0,312.707984 0,233.707984 C0,154.707984 43.8,91.3079836 120,90.5079836 Z M311.054822,90.5029976 L312.2,90.5079836 C387.4,90.6079836 432,154.707984 432,233.707984 C432,313.807984 397.5,392.307984 312.3,394.507984 C300.3,394.907984 288.4,392.907984 277.2,388.707984 L278.075966,389.032023 C278.892151,388.58661 279.701075,387.984328 280.4,387.607984 C328.2,360.107984 350.5,297.407984 350.5,233.707984 C350.5,171.407984 330.3,117.807984 283.6,94.3079836 C283.426408,94.2058709 283.291397,94.13921 283.18517,94.1018255 L283.168306,94.0541725 C283.123516,93.9229957 282.922603,93.9401667 282.840134,93.9540479 L282.834,93.9549836 L283.933475,93.6896694 C293.185436,91.5031742 302.653652,90.4195915 312.2,90.5079836 Z" id="形状结合" fill="url(#linearGradient-1)"></path>
            <path d="M187.5,85.3079836 C189.6,84.3079836 192.6,85.3079836 194.9,85.0079836 C199.3,84.4079836 207.1,81.8079836 210.2,86.5079836 C211.5,88.6079836 212.6,95.0079836 216.2,94.2079836 C219.2,93.5079836 220.8,90.5079836 222.8,88.4079836 C225.7,85.3079836 229.9,85.3079836 233.8,86.0079836 C236,86.4079836 243.2,89.4079836 244.7,86.7079836 C245.6,85.1079836 243,84.0079836 241.7,83.6079836 C237.3,82.2079836 227.2,82.7079836 227.2,76.4079836 C227.1,67.1079836 227,58.1079836 225.6,48.8079836 C224.2,39.5079836 221.9,30.4079836 219.7,21.2079836 C218.2,14.8079836 217.7,3.40798359 210.6,0.307983594 C205.8,-1.69201641 204.1,6.60798359 201.7,9.10798359 C198.8,12.1079836 193.2,11.2079836 190.9,14.7079836 C187.9,19.3079836 211.2,56.0079836 204.3,73.2079836 C201.9,79.1079836 192.7,82.6079836 187.5,85.4079836 L187.5,85.3079836 Z" id="路径" fill="#413D50"></path>
        </g>
    </g>
</svg>